<?xml version="1.0" encoding="us-ascii" standalone="no"?><svg xmlns="http://www.w3.org/2000/svg" xmlns:xlink="http://www.w3.org/1999/xlink" contentStyleType="text/css" height="638px" preserveAspectRatio="none" style="width:1715px;height:638px;background:#FFFFFF;" version="1.1" viewBox="0 0 1715 638" width="1715px" zoomAndPan="magnify"><defs/><g><!--cluster file_operation--><g id="cluster_file_operation"><path d="M8.5,137 L107.5,137 A3.75,3.75 0 0 1 110,139.5 L117,160.6094 L799.5,160.6094 A2.5,2.5 0 0 1 802,163.1094 L802,628.5 A2.5,2.5 0 0 1 799.5,631 L8.5,631 A2.5,2.5 0 0 1 6,628.5 L6,139.5 A2.5,2.5 0 0 1 8.5,137 " fill="none" style="stroke:#000000;stroke-width:1.5;"/><line style="stroke:#000000;stroke-width:1.5;" x1="6" x2="117" y1="160.6094" y2="160.6094"/><text fill="#000000" font-family="sans-serif" font-size="14" font-weight="bold" lengthAdjust="spacing" textLength="98" x="10" y="153.5332">file_operation</text></g><!--cluster generate_file--><g id="cluster_generate_file"><path d="M828.5,137 L923.5,137 A3.75,3.75 0 0 1 926,139.5 L933,160.6094 L1353.5,160.6094 A2.5,2.5 0 0 1 1356,163.1094 L1356,619.5 A2.5,2.5 0 0 1 1353.5,622 L828.5,622 A2.5,2.5 0 0 1 826,619.5 L826,139.5 A2.5,2.5 0 0 1 828.5,137 " fill="none" style="stroke:#000000;stroke-width:1.5;"/><line style="stroke:#000000;stroke-width:1.5;" x1="826" x2="933" y1="160.6094" y2="160.6094"/><text fill="#000000" font-family="sans-serif" font-size="14" font-weight="bold" lengthAdjust="spacing" textLength="94" x="830" y="153.5332">generate_file</text></g><!--cluster convert_file--><g id="cluster_convert_file"><path d="M1446.5,137 L1532.5,137 A3.75,3.75 0 0 1 1535,139.5 L1542,160.6094 L1705.5,160.6094 A2.5,2.5 0 0 1 1708,163.1094 L1708,593 A2.5,2.5 0 0 1 1705.5,595.5 L1446.5,595.5 A2.5,2.5 0 0 1 1444,593 L1444,139.5 A2.5,2.5 0 0 1 1446.5,137 " fill="none" style="stroke:#000000;stroke-width:1.5;"/><line style="stroke:#000000;stroke-width:1.5;" x1="1444" x2="1542" y1="160.6094" y2="160.6094"/><text fill="#000000" font-family="sans-serif" font-size="14" font-weight="bold" lengthAdjust="spacing" textLength="85" x="1448" y="153.5332">convert_file</text></g><!--class FileOperationStrategy--><g id="elem_FileOperationStrategy"><rect codeLine="3" fill="#F1F1F1" height="65.6094" id="FileOperationStrategy" rx="2.5" ry="2.5" style="stroke:#181818;stroke-width:0.5;" width="231" x="309.5" y="334"/><ellipse cx="351.5" cy="350" fill="#B4A7E5" rx="11" ry="11" style="stroke:#181818;stroke-width:1.0;"/><path d="M352.4844,354.9063 L353.2188,354.9063 L353.2188,356.3594 L349.2188,356.3594 L349.2188,354.9063 L349.9531,354.9063 L349.9531,344.875 L349.2188,344.875 L349.2188,343.4219 L353.2188,343.4219 L353.2188,344.875 L352.4844,344.875 L352.4844,354.9063 Z " fill="#000000"/><text fill="#000000" font-family="sans-serif" font-size="14" font-style="italic" lengthAdjust="spacing" textLength="139" x="371.5" y="355.7285">FileOperationStrategy</text><line style="stroke:#181818;stroke-width:0.5;" x1="310.5" x2="539.5" y1="366" y2="366"/><line style="stroke:#181818;stroke-width:0.5;" x1="310.5" x2="539.5" y1="374" y2="374"/><ellipse cx="320.5" cy="388.3047" fill="#84BE84" rx="3" ry="3" style="stroke:#038048;stroke-width:1.0;"/><text fill="#000000" font-family="sans-serif" font-size="14" lengthAdjust="spacing" textLength="205" x="329.5" y="392.5332">execute(filepath: str): list&lt;string&gt;</text></g><!--class FileOperation--><g id="elem_FileOperation"><rect codeLine="7" fill="#F1F1F1" height="83.2188" id="FileOperation" rx="2.5" ry="2.5" style="stroke:#181818;stroke-width:0.5;" width="231" x="309.5" y="173"/><ellipse cx="377.75" cy="189" fill="#ADD1B2" rx="11" ry="11" style="stroke:#181818;stroke-width:1.0;"/><path d="M380.4531,194.4375 Q379.5313,195.3594 377.2656,195.3594 Q376,195.3594 375.0781,194.4375 Q373.4219,192.7813 373.4219,189.25 Q373.4219,185.1406 375.2031,183.3438 Q376.1406,182.4219 377.3281,182.4219 Q379.5938,182.4219 380.3281,183.1406 Q381.7188,184.5469 381.6563,186.9375 L379.1875,186.9375 Q379.125,184.8125 378.3906,184.0781 Q378,183.6719 377.3281,183.6719 Q377.3281,183.6719 377.2656,184.1406 Q375.9375,185.4688 375.9375,189.125 Q375.9375,192.3125 377.0781,193.4375 Q377.6094,193.9688 377.6094,193.9688 Q377.8594,193.9688 378.3906,193.4375 Q379.0625,192.7813 379.125,190.3906 L381.7188,190.3906 Q381.5156,193.375 380.4531,194.4375 Z " fill="#000000"/><text fill="#000000" font-family="sans-serif" font-size="14" lengthAdjust="spacing" textLength="86" x="398.25" y="194.7285">FileOperation</text><line style="stroke:#181818;stroke-width:0.5;" x1="310.5" x2="539.5" y1="205" y2="205"/><rect fill="none" height="6" style="stroke:#C82930;stroke-width:1.0;" width="6" x="317.5" y="216.3047"/><text fill="#000000" font-family="sans-serif" font-size="14" lengthAdjust="spacing" textLength="198" x="329.5" y="223.5332">strategy: FileOperationStrategy</text><line style="stroke:#181818;stroke-width:0.5;" x1="310.5" x2="539.5" y1="230.6094" y2="230.6094"/><ellipse cx="320.5" cy="244.9141" fill="#84BE84" rx="3" ry="3" style="stroke:#038048;stroke-width:1.0;"/><text fill="#000000" font-family="sans-serif" font-size="14" lengthAdjust="spacing" textLength="205" x="329.5" y="249.1426">execute(filepath: str): list&lt;string&gt;</text></g><!--class ExtractStrategy--><g id="elem_ExtractStrategy"><rect codeLine="12" fill="#F1F1F1" height="153.6563" id="ExtractStrategy" rx="2.5" ry="2.5" style="stroke:#181818;stroke-width:0.5;" width="231" x="288.5" y="461"/><ellipse cx="351.75" cy="477" fill="#ADD1B2" rx="11" ry="11" style="stroke:#181818;stroke-width:1.0;"/><path d="M354.4531,482.4375 Q353.5313,483.3594 351.2656,483.3594 Q350,483.3594 349.0781,482.4375 Q347.4219,480.7813 347.4219,477.25 Q347.4219,473.1406 349.2031,471.3438 Q350.1406,470.4219 351.3281,470.4219 Q353.5938,470.4219 354.3281,471.1406 Q355.7188,472.5469 355.6563,474.9375 L353.1875,474.9375 Q353.125,472.8125 352.3906,472.0781 Q352,471.6719 351.3281,471.6719 Q351.3281,471.6719 351.2656,472.1406 Q349.9375,473.4688 349.9375,477.125 Q349.9375,480.3125 351.0781,481.4375 Q351.6094,481.9688 351.6094,481.9688 Q351.8594,481.9688 352.3906,481.4375 Q353.0625,480.7813 353.125,478.3906 L355.7188,478.3906 Q355.5156,481.375 354.4531,482.4375 Z " fill="#000000"/><text fill="#000000" font-family="sans-serif" font-size="14" lengthAdjust="spacing" textLength="96" x="372.25" y="482.7285">ExtractStrategy</text><line style="stroke:#181818;stroke-width:0.5;" x1="289.5" x2="518.5" y1="493" y2="493"/><rect fill="none" height="6" style="stroke:#C82930;stroke-width:1.0;" width="6" x="296.5" y="504.3047"/><text fill="#000000" font-family="sans-serif" font-size="14" lengthAdjust="spacing" textLength="58" x="308.5" y="511.5332">offset: int</text><rect fill="none" height="6" style="stroke:#C82930;stroke-width:1.0;" width="6" x="296.5" y="521.9141"/><text fill="#000000" font-family="sans-serif" font-size="14" lengthAdjust="spacing" textLength="47" x="308.5" y="529.1426">size: int</text><rect fill="none" height="6" style="stroke:#C82930;stroke-width:1.0;" width="6" x="296.5" y="539.5234"/><text fill="#000000" font-family="sans-serif" font-size="14" lengthAdjust="spacing" textLength="56" x="308.5" y="546.752">suffix: str</text><rect fill="none" height="6" style="stroke:#C82930;stroke-width:1.0;" width="6" x="296.5" y="557.1328"/><text fill="#000000" font-family="sans-serif" font-size="14" lengthAdjust="spacing" textLength="68" x="308.5" y="564.3613">file_ext: str</text><rect fill="none" height="6" style="stroke:#C82930;stroke-width:1.0;" width="6" x="296.5" y="574.7422"/><text fill="#000000" font-family="sans-serif" font-size="14" lengthAdjust="spacing" textLength="101" x="308.5" y="581.9707">output_dir: Path</text><line style="stroke:#181818;stroke-width:0.5;" x1="289.5" x2="518.5" y1="589.0469" y2="589.0469"/><ellipse cx="299.5" cy="603.3516" fill="#84BE84" rx="3" ry="3" style="stroke:#038048;stroke-width:1.0;"/><text fill="#000000" font-family="sans-serif" font-size="14" lengthAdjust="spacing" textLength="205" x="308.5" y="607.5801">execute(filepath: str): list&lt;string&gt;</text></g><!--class SplitStrategy--><g id="elem_SplitStrategy"><rect codeLine="21" fill="#F1F1F1" height="118.4375" id="SplitStrategy" rx="2.5" ry="2.5" style="stroke:#181818;stroke-width:0.5;" width="231" x="554.5" y="479"/><ellipse cx="625.75" cy="495" fill="#ADD1B2" rx="11" ry="11" style="stroke:#181818;stroke-width:1.0;"/><path d="M628.4531,500.4375 Q627.5313,501.3594 625.2656,501.3594 Q624,501.3594 623.0781,500.4375 Q621.4219,498.7813 621.4219,495.25 Q621.4219,491.1406 623.2031,489.3438 Q624.1406,488.4219 625.3281,488.4219 Q627.5938,488.4219 628.3281,489.1406 Q629.7188,490.5469 629.6563,492.9375 L627.1875,492.9375 Q627.125,490.8125 626.3906,490.0781 Q626,489.6719 625.3281,489.6719 Q625.3281,489.6719 625.2656,490.1406 Q623.9375,491.4688 623.9375,495.125 Q623.9375,498.3125 625.0781,499.4375 Q625.6094,499.9688 625.6094,499.9688 Q625.8594,499.9688 626.3906,499.4375 Q627.0625,498.7813 627.125,496.3906 L629.7188,496.3906 Q629.5156,499.375 628.4531,500.4375 Z " fill="#000000"/><text fill="#000000" font-family="sans-serif" font-size="14" lengthAdjust="spacing" textLength="80" x="646.25" y="500.7285">SplitStrategy</text><line style="stroke:#181818;stroke-width:0.5;" x1="555.5" x2="784.5" y1="511" y2="511"/><rect fill="none" height="6" style="stroke:#C82930;stroke-width:1.0;" width="6" x="562.5" y="522.3047"/><text fill="#000000" font-family="sans-serif" font-size="14" lengthAdjust="spacing" textLength="93" x="574.5" y="529.5332">chunk_size: int</text><rect fill="none" height="6" style="stroke:#C82930;stroke-width:1.0;" width="6" x="562.5" y="539.9141"/><text fill="#000000" font-family="sans-serif" font-size="14" lengthAdjust="spacing" textLength="101" x="574.5" y="547.1426">ignore_tail: bool</text><rect fill="none" height="6" style="stroke:#C82930;stroke-width:1.0;" width="6" x="562.5" y="557.5234"/><text fill="#000000" font-family="sans-serif" font-size="14" lengthAdjust="spacing" textLength="101" x="574.5" y="564.752">output_dir: Path</text><line style="stroke:#181818;stroke-width:0.5;" x1="555.5" x2="784.5" y1="571.8281" y2="571.8281"/><ellipse cx="565.5" cy="586.1328" fill="#84BE84" rx="3" ry="3" style="stroke:#038048;stroke-width:1.0;"/><text fill="#000000" font-family="sans-serif" font-size="14" lengthAdjust="spacing" textLength="205" x="574.5" y="590.3613">execute(filepath: str): list&lt;string&gt;</text></g><!--class HexDumpStrategy--><g id="elem_HexDumpStrategy"><rect codeLine="28" fill="#F1F1F1" height="100.8281" id="HexDumpStrategy" rx="2.5" ry="2.5" style="stroke:#181818;stroke-width:0.5;" width="231" x="22.5" y="487.5"/><ellipse cx="77.25" cy="503.5" fill="#ADD1B2" rx="11" ry="11" style="stroke:#181818;stroke-width:1.0;"/><path d="M79.9531,508.9375 Q79.0313,509.8594 76.7656,509.8594 Q75.5,509.8594 74.5781,508.9375 Q72.9219,507.2813 72.9219,503.75 Q72.9219,499.6406 74.7031,497.8438 Q75.6406,496.9219 76.8281,496.9219 Q79.0938,496.9219 79.8281,497.6406 Q81.2188,499.0469 81.1563,501.4375 L78.6875,501.4375 Q78.625,499.3125 77.8906,498.5781 Q77.5,498.1719 76.8281,498.1719 Q76.8281,498.1719 76.7656,498.6406 Q75.4375,499.9688 75.4375,503.625 Q75.4375,506.8125 76.5781,507.9375 Q77.1094,508.4688 77.1094,508.4688 Q77.3594,508.4688 77.8906,507.9375 Q78.5625,507.2813 78.625,504.8906 L81.2188,504.8906 Q81.0156,507.875 79.9531,508.9375 Z " fill="#000000"/><text fill="#000000" font-family="sans-serif" font-size="14" lengthAdjust="spacing" textLength="113" x="97.75" y="509.2285">HexDumpStrategy</text><line style="stroke:#181818;stroke-width:0.5;" x1="23.5" x2="252.5" y1="519.5" y2="519.5"/><rect fill="none" height="6" style="stroke:#C82930;stroke-width:1.0;" width="6" x="30.5" y="530.8047"/><text fill="#000000" font-family="sans-serif" font-size="14" lengthAdjust="spacing" textLength="58" x="42.5" y="538.0332">offset: int</text><rect fill="none" height="6" style="stroke:#C82930;stroke-width:1.0;" width="6" x="30.5" y="548.4141"/><text fill="#000000" font-family="sans-serif" font-size="14" lengthAdjust="spacing" textLength="47" x="42.5" y="555.6426">size: int</text><line style="stroke:#181818;stroke-width:0.5;" x1="23.5" x2="252.5" y1="562.7188" y2="562.7188"/><ellipse cx="33.5" cy="577.0234" fill="#84BE84" rx="3" ry="3" style="stroke:#038048;stroke-width:1.0;"/><text fill="#000000" font-family="sans-serif" font-size="14" lengthAdjust="spacing" textLength="205" x="42.5" y="581.252">execute(filepath: str): list&lt;string&gt;</text></g><!--class GenerateFileStrategy--><g id="elem_GenerateFileStrategy"><rect codeLine="2" fill="#F1F1F1" height="65.6094" id="GenerateFileStrategy" rx="2.5" ry="2.5" style="stroke:#181818;stroke-width:0.5;" width="231" x="914.5" y="334"/><ellipse cx="957.85" cy="350" fill="#B4A7E5" rx="11" ry="11" style="stroke:#181818;stroke-width:1.0;"/><path d="M958.8344,354.9063 L959.5688,354.9063 L959.5688,356.3594 L955.5688,356.3594 L955.5688,354.9063 L956.3031,354.9063 L956.3031,344.875 L955.5688,344.875 L955.5688,343.4219 L959.5688,343.4219 L959.5688,344.875 L958.8344,344.875 L958.8344,354.9063 Z " fill="#000000"/><text fill="#000000" font-family="sans-serif" font-size="14" font-style="italic" lengthAdjust="spacing" textLength="136" x="978.15" y="355.7285">GenerateFileStrategy</text><line style="stroke:#181818;stroke-width:0.5;" x1="915.5" x2="1144.5" y1="366" y2="366"/><line style="stroke:#181818;stroke-width:0.5;" x1="915.5" x2="1144.5" y1="374" y2="374"/><ellipse cx="925.5" cy="388.3047" fill="#84BE84" rx="3" ry="3" style="stroke:#038048;stroke-width:1.0;"/><text fill="#000000" font-family="sans-serif" font-size="14" lengthAdjust="spacing" textLength="205" x="934.5" y="392.5332">execute(filepath: str): list&lt;string&gt;</text></g><!--class GenerateFile--><g id="elem_GenerateFile"><rect codeLine="6" fill="#F1F1F1" height="83.2188" id="GenerateFile" rx="2.5" ry="2.5" style="stroke:#181818;stroke-width:0.5;" width="231" x="914.5" y="173"/><ellipse cx="984.25" cy="189" fill="#ADD1B2" rx="11" ry="11" style="stroke:#181818;stroke-width:1.0;"/><path d="M986.9531,194.4375 Q986.0313,195.3594 983.7656,195.3594 Q982.5,195.3594 981.5781,194.4375 Q979.9219,192.7813 979.9219,189.25 Q979.9219,185.1406 981.7031,183.3438 Q982.6406,182.4219 983.8281,182.4219 Q986.0938,182.4219 986.8281,183.1406 Q988.2188,184.5469 988.1563,186.9375 L985.6875,186.9375 Q985.625,184.8125 984.8906,184.0781 Q984.5,183.6719 983.8281,183.6719 Q983.8281,183.6719 983.7656,184.1406 Q982.4375,185.4688 982.4375,189.125 Q982.4375,192.3125 983.5781,193.4375 Q984.1094,193.9688 984.1094,193.9688 Q984.3594,193.9688 984.8906,193.4375 Q985.5625,192.7813 985.625,190.3906 L988.2188,190.3906 Q988.0156,193.375 986.9531,194.4375 Z " fill="#000000"/><text fill="#000000" font-family="sans-serif" font-size="14" lengthAdjust="spacing" textLength="83" x="1004.75" y="194.7285">GenerateFile</text><line style="stroke:#181818;stroke-width:0.5;" x1="915.5" x2="1144.5" y1="205" y2="205"/><rect fill="none" height="6" style="stroke:#C82930;stroke-width:1.0;" width="6" x="922.5" y="216.3047"/><text fill="#000000" font-family="sans-serif" font-size="14" lengthAdjust="spacing" textLength="195" x="934.5" y="223.5332">strategy: GenerateFileStrategy</text><line style="stroke:#181818;stroke-width:0.5;" x1="915.5" x2="1144.5" y1="230.6094" y2="230.6094"/><ellipse cx="925.5" cy="244.9141" fill="#84BE84" rx="3" ry="3" style="stroke:#038048;stroke-width:1.0;"/><text fill="#000000" font-family="sans-serif" font-size="14" lengthAdjust="spacing" textLength="205" x="934.5" y="249.1426">execute(filepath: str): list&lt;string&gt;</text></g><!--class IncrementalDataStrategy--><g id="elem_IncrementalDataStrategy"><rect codeLine="11" fill="#F1F1F1" height="136.0469" id="IncrementalDataStrategy" rx="2.5" ry="2.5" style="stroke:#181818;stroke-width:0.5;" width="231" x="1108.5" y="470"/><ellipse cx="1142.85" cy="486" fill="#ADD1B2" rx="11" ry="11" style="stroke:#181818;stroke-width:1.0;"/><path d="M1145.5531,491.4375 Q1144.6313,492.3594 1142.3656,492.3594 Q1141.1,492.3594 1140.1781,491.4375 Q1138.5219,489.7813 1138.5219,486.25 Q1138.5219,482.1406 1140.3031,480.3438 Q1141.2406,479.4219 1142.4281,479.4219 Q1144.6938,479.4219 1145.4281,480.1406 Q1146.8188,481.5469 1146.7563,483.9375 L1144.2875,483.9375 Q1144.225,481.8125 1143.4906,481.0781 Q1143.1,480.6719 1142.4281,480.6719 Q1142.4281,480.6719 1142.3656,481.1406 Q1141.0375,482.4688 1141.0375,486.125 Q1141.0375,489.3125 1142.1781,490.4375 Q1142.7094,490.9688 1142.7094,490.9688 Q1142.9594,490.9688 1143.4906,490.4375 Q1144.1625,489.7813 1144.225,487.3906 L1146.8188,487.3906 Q1146.6156,490.375 1145.5531,491.4375 Z " fill="#000000"/><text fill="#000000" font-family="sans-serif" font-size="14" lengthAdjust="spacing" textLength="156" x="1161.15" y="491.7285">IncrementalDataStrategy</text><line style="stroke:#181818;stroke-width:0.5;" x1="1109.5" x2="1338.5" y1="502" y2="502"/><rect fill="none" height="6" style="stroke:#C82930;stroke-width:1.0;" width="6" x="1116.5" y="513.3047"/><text fill="#000000" font-family="sans-serif" font-size="14" lengthAdjust="spacing" textLength="47" x="1128.5" y="520.5332">size: int</text><rect fill="none" height="6" style="stroke:#C82930;stroke-width:1.0;" width="6" x="1116.5" y="530.9141"/><text fill="#000000" font-family="sans-serif" font-size="14" lengthAdjust="spacing" textLength="78" x="1128.5" y="538.1426">unit_size: int</text><rect fill="none" height="6" style="stroke:#C82930;stroke-width:1.0;" width="6" x="1116.5" y="548.5234"/><text fill="#000000" font-family="sans-serif" font-size="14" lengthAdjust="spacing" textLength="93" x="1128.5" y="555.752">start_value: int</text><rect fill="none" height="6" style="stroke:#C82930;stroke-width:1.0;" width="6" x="1116.5" y="566.1328"/><text fill="#000000" font-family="sans-serif" font-size="14" lengthAdjust="spacing" textLength="162" x="1128.5" y="573.3613">endian: Literal['little', 'big']</text><line style="stroke:#181818;stroke-width:0.5;" x1="1109.5" x2="1338.5" y1="580.4375" y2="580.4375"/><ellipse cx="1119.5" cy="594.7422" fill="#84BE84" rx="3" ry="3" style="stroke:#038048;stroke-width:1.0;"/><text fill="#000000" font-family="sans-serif" font-size="14" lengthAdjust="spacing" textLength="205" x="1128.5" y="598.9707">execute(filepath: str): list&lt;string&gt;</text></g><!--class SecureRandomStrategy--><g id="elem_SecureRandomStrategy"><rect codeLine="19" fill="#F1F1F1" height="83.2188" id="SecureRandomStrategy" rx="2.5" ry="2.5" style="stroke:#181818;stroke-width:0.5;" width="231" x="842.5" y="496.5"/><ellipse cx="879.1" cy="512.5" fill="#ADD1B2" rx="11" ry="11" style="stroke:#181818;stroke-width:1.0;"/><path d="M881.8031,517.9375 Q880.8813,518.8594 878.6156,518.8594 Q877.35,518.8594 876.4281,517.9375 Q874.7719,516.2813 874.7719,512.75 Q874.7719,508.6406 876.5531,506.8438 Q877.4906,505.9219 878.6781,505.9219 Q880.9438,505.9219 881.6781,506.6406 Q883.0688,508.0469 883.0063,510.4375 L880.5375,510.4375 Q880.475,508.3125 879.7406,507.5781 Q879.35,507.1719 878.6781,507.1719 Q878.6781,507.1719 878.6156,507.6406 Q877.2875,508.9688 877.2875,512.625 Q877.2875,515.8125 878.4281,516.9375 Q878.9594,517.4688 878.9594,517.4688 Q879.2094,517.4688 879.7406,516.9375 Q880.4125,516.2813 880.475,513.8906 L883.0688,513.8906 Q882.8656,516.875 881.8031,517.9375 Z " fill="#000000"/><text fill="#000000" font-family="sans-serif" font-size="14" lengthAdjust="spacing" textLength="151" x="897.9" y="518.2285">SecureRandomStrategy</text><line style="stroke:#181818;stroke-width:0.5;" x1="843.5" x2="1072.5" y1="528.5" y2="528.5"/><rect fill="none" height="6" style="stroke:#C82930;stroke-width:1.0;" width="6" x="850.5" y="539.8047"/><text fill="#000000" font-family="sans-serif" font-size="14" lengthAdjust="spacing" textLength="47" x="862.5" y="547.0332">size: int</text><line style="stroke:#181818;stroke-width:0.5;" x1="843.5" x2="1072.5" y1="554.1094" y2="554.1094"/><ellipse cx="853.5" cy="568.4141" fill="#84BE84" rx="3" ry="3" style="stroke:#038048;stroke-width:1.0;"/><text fill="#000000" font-family="sans-serif" font-size="14" lengthAdjust="spacing" textLength="205" x="862.5" y="572.6426">execute(filepath: str): list&lt;string&gt;</text></g><!--class ConvertFileStrategy--><g id="elem_ConvertFileStrategy"><rect codeLine="2" fill="#F1F1F1" height="65.6094" id="ConvertFileStrategy" rx="2.5" ry="2.5" style="stroke:#181818;stroke-width:0.5;" width="231" x="1460.5" y="334"/><ellipse cx="1509.25" cy="350" fill="#B4A7E5" rx="11" ry="11" style="stroke:#181818;stroke-width:1.0;"/><path d="M1510.2344,354.9063 L1510.9688,354.9063 L1510.9688,356.3594 L1506.9688,356.3594 L1506.9688,354.9063 L1507.7031,354.9063 L1507.7031,344.875 L1506.9688,344.875 L1506.9688,343.4219 L1510.9688,343.4219 L1510.9688,344.875 L1510.2344,344.875 L1510.2344,354.9063 Z " fill="#000000"/><text fill="#000000" font-family="sans-serif" font-size="14" font-style="italic" lengthAdjust="spacing" textLength="125" x="1529.75" y="355.7285">ConvertFileStrategy</text><line style="stroke:#181818;stroke-width:0.5;" x1="1461.5" x2="1690.5" y1="366" y2="366"/><line style="stroke:#181818;stroke-width:0.5;" x1="1461.5" x2="1690.5" y1="374" y2="374"/><ellipse cx="1471.5" cy="388.3047" fill="#84BE84" rx="3" ry="3" style="stroke:#038048;stroke-width:1.0;"/><text fill="#000000" font-family="sans-serif" font-size="14" lengthAdjust="spacing" textLength="205" x="1480.5" y="392.5332">execute(filepath: str): list&lt;string&gt;</text></g><!--class ConvertFile--><g id="elem_ConvertFile"><rect codeLine="6" fill="#F1F1F1" height="83.2188" id="ConvertFile" rx="2.5" ry="2.5" style="stroke:#181818;stroke-width:0.5;" width="231" x="1460.5" y="173"/><ellipse cx="1535.25" cy="189" fill="#ADD1B2" rx="11" ry="11" style="stroke:#181818;stroke-width:1.0;"/><path d="M1537.9531,194.4375 Q1537.0313,195.3594 1534.7656,195.3594 Q1533.5,195.3594 1532.5781,194.4375 Q1530.9219,192.7813 1530.9219,189.25 Q1530.9219,185.1406 1532.7031,183.3438 Q1533.6406,182.4219 1534.8281,182.4219 Q1537.0938,182.4219 1537.8281,183.1406 Q1539.2188,184.5469 1539.1563,186.9375 L1536.6875,186.9375 Q1536.625,184.8125 1535.8906,184.0781 Q1535.5,183.6719 1534.8281,183.6719 Q1534.8281,183.6719 1534.7656,184.1406 Q1533.4375,185.4688 1533.4375,189.125 Q1533.4375,192.3125 1534.5781,193.4375 Q1535.1094,193.9688 1535.1094,193.9688 Q1535.3594,193.9688 1535.8906,193.4375 Q1536.5625,192.7813 1536.625,190.3906 L1539.2188,190.3906 Q1539.0156,193.375 1537.9531,194.4375 Z " fill="#000000"/><text fill="#000000" font-family="sans-serif" font-size="14" lengthAdjust="spacing" textLength="73" x="1555.75" y="194.7285">ConvertFile</text><line style="stroke:#181818;stroke-width:0.5;" x1="1461.5" x2="1690.5" y1="205" y2="205"/><rect fill="none" height="6" style="stroke:#C82930;stroke-width:1.0;" width="6" x="1468.5" y="216.3047"/><text fill="#000000" font-family="sans-serif" font-size="14" lengthAdjust="spacing" textLength="185" x="1480.5" y="223.5332">strategy: ConvertFileStrategy</text><line style="stroke:#181818;stroke-width:0.5;" x1="1461.5" x2="1690.5" y1="230.6094" y2="230.6094"/><ellipse cx="1471.5" cy="244.9141" fill="#84BE84" rx="3" ry="3" style="stroke:#038048;stroke-width:1.0;"/><text fill="#000000" font-family="sans-serif" font-size="14" lengthAdjust="spacing" textLength="205" x="1480.5" y="249.1426">execute(filepath: str): list&lt;string&gt;</text></g><!--class HexToBinaryChunkedStrategy--><g id="elem_HexToBinaryChunkedStrategy"><rect codeLine="11" fill="#F1F1F1" height="83.2188" id="HexToBinaryChunkedStrategy" rx="2.5" ry="2.5" style="stroke:#181818;stroke-width:0.5;" width="231" x="1460.5" y="496.5"/><ellipse cx="1479.55" cy="512.5" fill="#ADD1B2" rx="11" ry="11" style="stroke:#181818;stroke-width:1.0;"/><path d="M1482.2531,517.9375 Q1481.3313,518.8594 1479.0656,518.8594 Q1477.8,518.8594 1476.8781,517.9375 Q1475.2219,516.2813 1475.2219,512.75 Q1475.2219,508.6406 1477.0031,506.8438 Q1477.9406,505.9219 1479.1281,505.9219 Q1481.3938,505.9219 1482.1281,506.6406 Q1483.5188,508.0469 1483.4563,510.4375 L1480.9875,510.4375 Q1480.925,508.3125 1480.1906,507.5781 Q1479.8,507.1719 1479.1281,507.1719 Q1479.1281,507.1719 1479.0656,507.6406 Q1477.7375,508.9688 1477.7375,512.625 Q1477.7375,515.8125 1478.8781,516.9375 Q1479.4094,517.4688 1479.4094,517.4688 Q1479.6594,517.4688 1480.1906,516.9375 Q1480.8625,516.2813 1480.925,513.8906 L1483.5188,513.8906 Q1483.3156,516.875 1482.2531,517.9375 Z " fill="#000000"/><text fill="#000000" font-family="sans-serif" font-size="14" lengthAdjust="spacing" textLength="190" x="1494.45" y="518.2285">HexToBinaryChunkedStrategy</text><line style="stroke:#181818;stroke-width:0.5;" x1="1461.5" x2="1690.5" y1="528.5" y2="528.5"/><rect fill="none" height="6" style="stroke:#C82930;stroke-width:1.0;" width="6" x="1468.5" y="539.8047"/><text fill="#000000" font-family="sans-serif" font-size="14" lengthAdjust="spacing" textLength="93" x="1480.5" y="547.0332">chunk_size: int</text><line style="stroke:#181818;stroke-width:0.5;" x1="1461.5" x2="1690.5" y1="554.1094" y2="554.1094"/><ellipse cx="1471.5" cy="568.4141" fill="#84BE84" rx="3" ry="3" style="stroke:#038048;stroke-width:1.0;"/><text fill="#000000" font-family="sans-serif" font-size="14" lengthAdjust="spacing" textLength="205" x="1480.5" y="572.6426">execute(filepath: str): list&lt;string&gt;</text></g><!--class Main--><g id="elem_Main"><rect codeLine="6" fill="#F1F1F1" height="65.6094" id="Main" rx="2.5" ry="2.5" style="stroke:#181818;stroke-width:0.5;" width="66" x="828" y="7"/><ellipse cx="844.8" cy="23" fill="#ADD1B2" rx="11" ry="11" style="stroke:#181818;stroke-width:1.0;"/><path d="M847.5031,28.4375 Q846.5813,29.3594 844.3156,29.3594 Q843.05,29.3594 842.1281,28.4375 Q840.4719,26.7813 840.4719,23.25 Q840.4719,19.1406 842.2531,17.3438 Q843.1906,16.4219 844.3781,16.4219 Q846.6438,16.4219 847.3781,17.1406 Q848.7688,18.5469 848.7063,20.9375 L846.2375,20.9375 Q846.175,18.8125 845.4406,18.0781 Q845.05,17.6719 844.3781,17.6719 Q844.3781,17.6719 844.3156,18.1406 Q842.9875,19.4688 842.9875,23.125 Q842.9875,26.3125 844.1281,27.4375 Q844.6594,27.9688 844.6594,27.9688 Q844.9094,27.9688 845.4406,27.4375 Q846.1125,26.7813 846.175,24.3906 L848.7688,24.3906 Q848.5656,27.375 847.5031,28.4375 Z " fill="#000000"/><text fill="#000000" font-family="sans-serif" font-size="14" lengthAdjust="spacing" textLength="30" x="859.2" y="28.7285">Main</text><line style="stroke:#181818;stroke-width:0.5;" x1="829" x2="893" y1="39" y2="39"/><line style="stroke:#181818;stroke-width:0.5;" x1="829" x2="893" y1="47" y2="47"/><ellipse cx="839" cy="61.3047" fill="#84BE84" rx="3" ry="3" style="stroke:#038048;stroke-width:1.0;"/><text fill="#000000" font-family="sans-serif" font-size="14" lengthAdjust="spacing" textLength="40" x="848" y="65.5332">main()</text></g><!--reverse link FileOperationStrategy to ExtractStrategy--><g id="link_FileOperationStrategy_ExtractStrategy"><path codeLine="34" d="M418.7814,418.0528 C416.6414,435.2828 416.12,439.45 413.47,460.77 " fill="none" id="FileOperationStrategy-backto-ExtractStrategy" style="stroke:#181818;stroke-width:1.0;stroke-dasharray:7.0,7.0;"/><polygon fill="none" points="421,400.19,412.8272,417.3132,424.7357,418.7923,421,400.19" style="stroke:#181818;stroke-width:1.0;"/></g><!--reverse link FileOperationStrategy to SplitStrategy--><g id="link_FileOperationStrategy_SplitStrategy"><path codeLine="35" d="M486.4786,410.408 C518.6886,432.618 547.61,452.58 585.82,478.94 " fill="none" id="FileOperationStrategy-backto-SplitStrategy" style="stroke:#181818;stroke-width:1.0;stroke-dasharray:7.0,7.0;"/><polygon fill="none" points="471.66,400.19,483.0726,415.3476,489.8846,405.4685,471.66,400.19" style="stroke:#181818;stroke-width:1.0;"/></g><!--reverse link FileOperationStrategy to HexDumpStrategy--><g id="link_FileOperationStrategy_HexDumpStrategy"><path codeLine="36" d="M354.8292,409.3232 C312.9492,433.9832 269.94,459.31 222.11,487.47 " fill="none" id="FileOperationStrategy-backto-HexDumpStrategy" style="stroke:#181818;stroke-width:1.0;stroke-dasharray:7.0,7.0;"/><polygon fill="none" points="370.34,400.19,351.7848,404.1529,357.8736,414.4934,370.34,400.19" style="stroke:#181818;stroke-width:1.0;"/></g><!--link FileOperation to FileOperationStrategy--><g id="link_FileOperation_FileOperationStrategy"><path codeLine="38" d="M425,256.23 C425,280.6 425,305.15 425,327.82 " fill="none" id="FileOperation-to-FileOperationStrategy" style="stroke:#181818;stroke-width:1.0;"/><polygon fill="#181818" points="425,333.82,429,324.82,425,328.82,421,324.82,425,333.82" style="stroke:#181818;stroke-width:1.0;"/></g><!--reverse link GenerateFileStrategy to IncrementalDataStrategy--><g id="link_GenerateFileStrategy_IncrementalDataStrategy"><path codeLine="24" d="M1080.5231,412.0125 C1103.1631,431.7325 1119.44,445.91 1147.03,469.95 " fill="none" id="GenerateFileStrategy-backto-IncrementalDataStrategy" style="stroke:#181818;stroke-width:1.0;stroke-dasharray:7.0,7.0;"/><polygon fill="none" points="1066.95,400.19,1076.5823,416.5369,1084.4639,407.4881,1066.95,400.19" style="stroke:#181818;stroke-width:1.0;"/></g><!--reverse link GenerateFileStrategy to SecureRandomStrategy--><g id="link_GenerateFileStrategy_SecureRandomStrategy"><path codeLine="25" d="M1009.2332,416.749 C997.6032,444.039 987.92,466.78 975.36,496.26 " fill="none" id="GenerateFileStrategy-backto-SecureRandomStrategy" style="stroke:#181818;stroke-width:1.0;stroke-dasharray:7.0,7.0;"/><polygon fill="none" points="1016.29,400.19,1003.7135,414.3967,1014.7528,419.1013,1016.29,400.19" style="stroke:#181818;stroke-width:1.0;"/></g><!--link GenerateFile to GenerateFileStrategy--><g id="link_GenerateFile_GenerateFileStrategy"><path codeLine="27" d="M1030,256.23 C1030,280.6 1030,305.15 1030,327.82 " fill="none" id="GenerateFile-to-GenerateFileStrategy" style="stroke:#181818;stroke-width:1.0;"/><polygon fill="#181818" points="1030,333.82,1034,324.82,1030,328.82,1026,324.82,1030,333.82" style="stroke:#181818;stroke-width:1.0;"/></g><!--reverse link ConvertFileStrategy to HexToBinaryChunkedStrategy--><g id="link_ConvertFileStrategy_HexToBinaryChunkedStrategy"><path codeLine="16" d="M1576,418.19 C1576,445.48 1576,466.78 1576,496.26 " fill="none" id="ConvertFileStrategy-backto-HexToBinaryChunkedStrategy" style="stroke:#181818;stroke-width:1.0;stroke-dasharray:7.0,7.0;"/><polygon fill="none" points="1576,400.19,1570,418.19,1582,418.19,1576,400.19" style="stroke:#181818;stroke-width:1.0;"/></g><!--link ConvertFile to ConvertFileStrategy--><g id="link_ConvertFile_ConvertFileStrategy"><path codeLine="18" d="M1576,256.23 C1576,280.6 1576,305.15 1576,327.82 " fill="none" id="ConvertFile-to-ConvertFileStrategy" style="stroke:#181818;stroke-width:1.0;"/><polygon fill="#181818" points="1576,333.82,1580,324.82,1576,328.82,1572,324.82,1576,333.82" style="stroke:#181818;stroke-width:1.0;"/></g><!--link Main to FileOperation--><g id="link_Main_FileOperation"><path codeLine="10" d="M827.99,42.06 C769.31,45.1 644.26,56.95 551,103 C516.56,120 488.3257,144.5512 464.9957,168.5112 " fill="none" id="Main-to-FileOperation" style="stroke:#181818;stroke-width:1.0;stroke-dasharray:7.0,7.0;"/><polygon fill="#181818" points="460.81,172.81,469.9545,169.1523,464.2981,169.2277,464.2228,163.5713,460.81,172.81" style="stroke:#181818;stroke-width:1.0;"/><text fill="#000000" font-family="sans-serif" font-size="13" lengthAdjust="spacing" textLength="28" x="552" y="117.4951">uses</text></g><!--link Main to SplitStrategy--><g id="link_Main_SplitStrategy"><path codeLine="11" d="M848.1,73.14 C841.44,89.79 833.23,110.47 826,129 C777.5,253.35 724.0732,393.9482 694.0932,473.1882 " fill="none" id="Main-to-SplitStrategy" style="stroke:#181818;stroke-width:1.0;stroke-dasharray:7.0,7.0;"/><polygon fill="#181818" points="691.97,478.8,698.896,471.7978,693.7393,474.1235,691.4136,468.9669,691.97,478.8" style="stroke:#181818;stroke-width:1.0;"/><text fill="#000000" font-family="sans-serif" font-size="13" lengthAdjust="spacing" textLength="43" x="766" y="300.4951">creates</text></g><!--link Main to ExtractStrategy--><g id="link_Main_ExtractStrategy"><path codeLine="12" d="M827.93,70.44 C809.89,87.04 787.52,108.5 769,129 C666.68,242.28 662.35,288.59 558,400 C538.68,420.63 521.0742,437.5712 499.8042,456.6712 " fill="none" id="Main-to-ExtractStrategy" style="stroke:#181818;stroke-width:1.0;stroke-dasharray:7.0,7.0;"/><polygon fill="#181818" points="495.34,460.68,504.7089,457.643,499.0602,457.3393,499.3638,451.6906,495.34,460.68" style="stroke:#181818;stroke-width:1.0;"/><text fill="#000000" font-family="sans-serif" font-size="13" lengthAdjust="spacing" textLength="43" x="650" y="300.4951">creates</text></g><!--link Main to HexDumpStrategy--><g id="link_Main_HexDumpStrategy"><path codeLine="13" d="M827.93,41.85 C719.26,45.28 375.35,61.37 292,129 C180.44,219.52 150.2283,394.0279 141.7683,481.3879 " fill="none" id="Main-to-HexDumpStrategy" style="stroke:#181818;stroke-width:1.0;stroke-dasharray:7.0,7.0;"/><polygon fill="#181818" points="141.19,487.36,146.0389,478.7875,141.6719,482.3833,138.0761,478.0163,141.19,487.36" style="stroke:#181818;stroke-width:1.0;"/><text fill="#000000" font-family="sans-serif" font-size="13" lengthAdjust="spacing" textLength="43" x="187" y="300.4951">creates</text></g><!--link Main to GenerateFile--><g id="link_Main_GenerateFile"><path codeLine="15" d="M892.39,73.04 C919.98,101.2 956.0712,138.034 985.9312,168.514 " fill="none" id="Main-to-GenerateFile" style="stroke:#181818;stroke-width:1.0;stroke-dasharray:7.0,7.0;"/><polygon fill="#181818" points="990.13,172.8,986.6891,163.5718,986.631,169.2283,980.9744,169.1702,990.13,172.8" style="stroke:#181818;stroke-width:1.0;"/><text fill="#000000" font-family="sans-serif" font-size="13" lengthAdjust="spacing" textLength="28" x="936" y="117.4951">uses</text></g><!--link Main to IncrementalDataStrategy--><g id="link_Main_IncrementalDataStrategy"><path codeLine="16" d="M894.2,46.1 C965.01,57.68 1127.3,88.12 1163,129 C1245.79,223.81 1244.295,374.7737 1234.815,463.8437 " fill="none" id="Main-to-IncrementalDataStrategy" style="stroke:#181818;stroke-width:1.0;stroke-dasharray:7.0,7.0;"/><polygon fill="#181818" points="1234.18,469.81,1239.1101,461.2839,1234.7092,464.8381,1231.155,460.4372,1234.18,469.81" style="stroke:#181818;stroke-width:1.0;"/><text fill="#000000" font-family="sans-serif" font-size="13" lengthAdjust="spacing" textLength="43" x="1234" y="300.4951">creates</text></g><!--link Main to SecureRandomStrategy--><g id="link_Main_SecureRandomStrategy"><path codeLine="17" d="M860.83,73.3 C861.23,136.94 865.83,282.55 897,400 C905.95,433.72 919.5254,464.3292 933.0254,490.9392 " fill="none" id="Main-to-SecureRandomStrategy" style="stroke:#181818;stroke-width:1.0;stroke-dasharray:7.0,7.0;"/><polygon fill="#181818" points="935.74,496.29,935.2353,486.4541,933.4778,491.831,928.1009,490.0736,935.74,496.29" style="stroke:#181818;stroke-width:1.0;"/><text fill="#000000" font-family="sans-serif" font-size="13" lengthAdjust="spacing" textLength="43" x="878" y="300.4951">creates</text></g><!--link Main to ConvertFile--><g id="link_Main_ConvertFile"><path codeLine="19" d="M894.13,42.23 C1000.76,46.57 1333.86,63.07 1433,103 C1472,118.71 1504.9327,144.1895 1531.6727,168.7695 " fill="none" id="Main-to-ConvertFile" style="stroke:#181818;stroke-width:1.0;stroke-dasharray:7.0,7.0;"/><polygon fill="#181818" points="1536.09,172.83,1532.171,163.7944,1532.4089,169.4463,1526.7571,169.6841,1536.09,172.83" style="stroke:#181818;stroke-width:1.0;"/><text fill="#000000" font-family="sans-serif" font-size="13" lengthAdjust="spacing" textLength="28" x="1469" y="117.4951">uses</text></g><!--link Main to HexToBinaryChunkedStrategy--><g id="link_Main_HexToBinaryChunkedStrategy"><path codeLine="20" d="M894.02,42.53 C993.27,47.77 1286.4,68.2 1356,129 C1451.27,212.23 1377.9,291.54 1443,400 C1465.01,436.66 1494.156,467.1499 1522.076,492.3499 " fill="none" id="Main-to-HexToBinaryChunkedStrategy" style="stroke:#181818;stroke-width:1.0;stroke-dasharray:7.0,7.0;"/><polygon fill="#181818" points="1526.53,496.37,1522.529,487.3704,1522.8183,493.0199,1517.1688,493.3092,1526.53,496.37" style="stroke:#181818;stroke-width:1.0;"/><text fill="#000000" font-family="sans-serif" font-size="13" lengthAdjust="spacing" textLength="43" x="1413" y="300.4951">creates</text></g><!--SRC=[KrTuidlQuyPrZvkdFcvQ-BXfoUFcrK3kqzcR7pTDUh5gxUF6_I_sxNdSrF1qmPQd4phUx-a8o4dCAmdrzG6gKipCIyufJKbzjdB-Y-Qzx_TqSi545D8oSrBZymjIYn9BClFpz0fAStCGakcfUI29r7YGAZIvvFoyijIY4YGfhkISnE9Y1T_4p3o5QYu58D3E1R8rDBbgkRZ0edfwTWfkGFN-CFiKh1HAYrEB4RB11JcP9S4b84lJAu6ooKMfG2QI0jSAe6GoNYKUgHKkfRa5M9GWrBX3VGPo3OOZFFE06d9JyqeISrmIInBnsHMScbnQb1gKc9UIdulNGcT8S66r3-ZWa7odpBp4eahdZDAyxDGKJAC0]--></g></svg>