<?xml version="1.0" encoding="us-ascii" standalone="no"?><svg xmlns="http://www.w3.org/2000/svg" xmlns:xlink="http://www.w3.org/1999/xlink" contentStyleType="text/css" height="638px" preserveAspectRatio="none" style="width:1363px;height:638px;background:#FFFFFF;" version="1.1" viewBox="0 0 1363 638" width="1363px" zoomAndPan="magnify"><defs/><g><!--cluster file_operation--><g id="cluster_file_operation"><path d="M8.5,137 L107.5,137 A3.75,3.75 0 0 1 110,139.5 L117,160.6094 L799.5,160.6094 A2.5,2.5 0 0 1 802,163.1094 L802,628.5 A2.5,2.5 0 0 1 799.5,631 L8.5,631 A2.5,2.5 0 0 1 6,628.5 L6,139.5 A2.5,2.5 0 0 1 8.5,137 " fill="none" style="stroke:#000000;stroke-width:1.5;"/><line style="stroke:#000000;stroke-width:1.5;" x1="6" x2="117" y1="160.6094" y2="160.6094"/><text fill="#000000" font-family="sans-serif" font-size="14" font-weight="bold" lengthAdjust="spacing" textLength="98" x="10" y="153.5332">file_operation</text></g><!--cluster generate_file--><g id="cluster_generate_file"><path d="M828.5,137 L923.5,137 A3.75,3.75 0 0 1 926,139.5 L933,160.6094 L1353.5,160.6094 A2.5,2.5 0 0 1 1356,163.1094 L1356,619.5 A2.5,2.5 0 0 1 1353.5,622 L828.5,622 A2.5,2.5 0 0 1 826,619.5 L826,139.5 A2.5,2.5 0 0 1 828.5,137 " fill="none" style="stroke:#000000;stroke-width:1.5;"/><line style="stroke:#000000;stroke-width:1.5;" x1="826" x2="933" y1="160.6094" y2="160.6094"/><text fill="#000000" font-family="sans-serif" font-size="14" font-weight="bold" lengthAdjust="spacing" textLength="94" x="830" y="153.5332">generate_file</text></g><!--class FileOperationStrategy--><g id="elem_FileOperationStrategy"><rect codeLine="3" fill="#F1F1F1" height="65.6094" id="FileOperationStrategy" rx="2.5" ry="2.5" style="stroke:#181818;stroke-width:0.5;" width="231" x="457.5" y="334"/><ellipse cx="499.5" cy="350" fill="#B4A7E5" rx="11" ry="11" style="stroke:#181818;stroke-width:1.0;"/><path d="M500.4844,354.9063 L501.2188,354.9063 L501.2188,356.3594 L497.2188,356.3594 L497.2188,354.9063 L497.9531,354.9063 L497.9531,344.875 L497.2188,344.875 L497.2188,343.4219 L501.2188,343.4219 L501.2188,344.875 L500.4844,344.875 L500.4844,354.9063 Z " fill="#000000"/><text fill="#000000" font-family="sans-serif" font-size="14" font-style="italic" lengthAdjust="spacing" textLength="139" x="519.5" y="355.7285">FileOperationStrategy</text><line style="stroke:#181818;stroke-width:0.5;" x1="458.5" x2="687.5" y1="366" y2="366"/><line style="stroke:#181818;stroke-width:0.5;" x1="458.5" x2="687.5" y1="374" y2="374"/><ellipse cx="468.5" cy="388.3047" fill="#84BE84" rx="3" ry="3" style="stroke:#038048;stroke-width:1.0;"/><text fill="#000000" font-family="sans-serif" font-size="14" lengthAdjust="spacing" textLength="205" x="477.5" y="392.5332">execute(filepath: str): list&lt;string&gt;</text></g><!--class FileOperation--><g id="elem_FileOperation"><rect codeLine="7" fill="#F1F1F1" height="83.2188" id="FileOperation" rx="2.5" ry="2.5" style="stroke:#181818;stroke-width:0.5;" width="231" x="457.5" y="173"/><ellipse cx="525.75" cy="189" fill="#ADD1B2" rx="11" ry="11" style="stroke:#181818;stroke-width:1.0;"/><path d="M528.4531,194.4375 Q527.5313,195.3594 525.2656,195.3594 Q524,195.3594 523.0781,194.4375 Q521.4219,192.7813 521.4219,189.25 Q521.4219,185.1406 523.2031,183.3438 Q524.1406,182.4219 525.3281,182.4219 Q527.5938,182.4219 528.3281,183.1406 Q529.7188,184.5469 529.6563,186.9375 L527.1875,186.9375 Q527.125,184.8125 526.3906,184.0781 Q526,183.6719 525.3281,183.6719 Q525.3281,183.6719 525.2656,184.1406 Q523.9375,185.4688 523.9375,189.125 Q523.9375,192.3125 525.0781,193.4375 Q525.6094,193.9688 525.6094,193.9688 Q525.8594,193.9688 526.3906,193.4375 Q527.0625,192.7813 527.125,190.3906 L529.7188,190.3906 Q529.5156,193.375 528.4531,194.4375 Z " fill="#000000"/><text fill="#000000" font-family="sans-serif" font-size="14" lengthAdjust="spacing" textLength="86" x="546.25" y="194.7285">FileOperation</text><line style="stroke:#181818;stroke-width:0.5;" x1="458.5" x2="687.5" y1="205" y2="205"/><rect fill="none" height="6" style="stroke:#C82930;stroke-width:1.0;" width="6" x="465.5" y="216.3047"/><text fill="#000000" font-family="sans-serif" font-size="14" lengthAdjust="spacing" textLength="198" x="477.5" y="223.5332">strategy: FileOperationStrategy</text><line style="stroke:#181818;stroke-width:0.5;" x1="458.5" x2="687.5" y1="230.6094" y2="230.6094"/><ellipse cx="468.5" cy="244.9141" fill="#84BE84" rx="3" ry="3" style="stroke:#038048;stroke-width:1.0;"/><text fill="#000000" font-family="sans-serif" font-size="14" lengthAdjust="spacing" textLength="205" x="477.5" y="249.1426">execute(filepath: str): list&lt;string&gt;</text></g><!--class ExtractStrategy--><g id="elem_ExtractStrategy"><rect codeLine="12" fill="#F1F1F1" height="153.6563" id="ExtractStrategy" rx="2.5" ry="2.5" style="stroke:#181818;stroke-width:0.5;" width="231" x="554.5" y="461"/><ellipse cx="617.75" cy="477" fill="#ADD1B2" rx="11" ry="11" style="stroke:#181818;stroke-width:1.0;"/><path d="M620.4531,482.4375 Q619.5313,483.3594 617.2656,483.3594 Q616,483.3594 615.0781,482.4375 Q613.4219,480.7813 613.4219,477.25 Q613.4219,473.1406 615.2031,471.3438 Q616.1406,470.4219 617.3281,470.4219 Q619.5938,470.4219 620.3281,471.1406 Q621.7188,472.5469 621.6563,474.9375 L619.1875,474.9375 Q619.125,472.8125 618.3906,472.0781 Q618,471.6719 617.3281,471.6719 Q617.3281,471.6719 617.2656,472.1406 Q615.9375,473.4688 615.9375,477.125 Q615.9375,480.3125 617.0781,481.4375 Q617.6094,481.9688 617.6094,481.9688 Q617.8594,481.9688 618.3906,481.4375 Q619.0625,480.7813 619.125,478.3906 L621.7188,478.3906 Q621.5156,481.375 620.4531,482.4375 Z " fill="#000000"/><text fill="#000000" font-family="sans-serif" font-size="14" lengthAdjust="spacing" textLength="96" x="638.25" y="482.7285">ExtractStrategy</text><line style="stroke:#181818;stroke-width:0.5;" x1="555.5" x2="784.5" y1="493" y2="493"/><rect fill="none" height="6" style="stroke:#C82930;stroke-width:1.0;" width="6" x="562.5" y="504.3047"/><text fill="#000000" font-family="sans-serif" font-size="14" lengthAdjust="spacing" textLength="58" x="574.5" y="511.5332">offset: int</text><rect fill="none" height="6" style="stroke:#C82930;stroke-width:1.0;" width="6" x="562.5" y="521.9141"/><text fill="#000000" font-family="sans-serif" font-size="14" lengthAdjust="spacing" textLength="47" x="574.5" y="529.1426">size: int</text><rect fill="none" height="6" style="stroke:#C82930;stroke-width:1.0;" width="6" x="562.5" y="539.5234"/><text fill="#000000" font-family="sans-serif" font-size="14" lengthAdjust="spacing" textLength="56" x="574.5" y="546.752">suffix: str</text><rect fill="none" height="6" style="stroke:#C82930;stroke-width:1.0;" width="6" x="562.5" y="557.1328"/><text fill="#000000" font-family="sans-serif" font-size="14" lengthAdjust="spacing" textLength="68" x="574.5" y="564.3613">file_ext: str</text><rect fill="none" height="6" style="stroke:#C82930;stroke-width:1.0;" width="6" x="562.5" y="574.7422"/><text fill="#000000" font-family="sans-serif" font-size="14" lengthAdjust="spacing" textLength="101" x="574.5" y="581.9707">output_dir: Path</text><line style="stroke:#181818;stroke-width:0.5;" x1="555.5" x2="784.5" y1="589.0469" y2="589.0469"/><ellipse cx="565.5" cy="603.3516" fill="#84BE84" rx="3" ry="3" style="stroke:#038048;stroke-width:1.0;"/><text fill="#000000" font-family="sans-serif" font-size="14" lengthAdjust="spacing" textLength="205" x="574.5" y="607.5801">execute(filepath: str): list&lt;string&gt;</text></g><!--class SplitStrategy--><g id="elem_SplitStrategy"><rect codeLine="21" fill="#F1F1F1" height="118.4375" id="SplitStrategy" rx="2.5" ry="2.5" style="stroke:#181818;stroke-width:0.5;" width="231" x="22.5" y="479"/><ellipse cx="93.75" cy="495" fill="#ADD1B2" rx="11" ry="11" style="stroke:#181818;stroke-width:1.0;"/><path d="M96.4531,500.4375 Q95.5313,501.3594 93.2656,501.3594 Q92,501.3594 91.0781,500.4375 Q89.4219,498.7813 89.4219,495.25 Q89.4219,491.1406 91.2031,489.3438 Q92.1406,488.4219 93.3281,488.4219 Q95.5938,488.4219 96.3281,489.1406 Q97.7188,490.5469 97.6563,492.9375 L95.1875,492.9375 Q95.125,490.8125 94.3906,490.0781 Q94,489.6719 93.3281,489.6719 Q93.3281,489.6719 93.2656,490.1406 Q91.9375,491.4688 91.9375,495.125 Q91.9375,498.3125 93.0781,499.4375 Q93.6094,499.9688 93.6094,499.9688 Q93.8594,499.9688 94.3906,499.4375 Q95.0625,498.7813 95.125,496.3906 L97.7188,496.3906 Q97.5156,499.375 96.4531,500.4375 Z " fill="#000000"/><text fill="#000000" font-family="sans-serif" font-size="14" lengthAdjust="spacing" textLength="80" x="114.25" y="500.7285">SplitStrategy</text><line style="stroke:#181818;stroke-width:0.5;" x1="23.5" x2="252.5" y1="511" y2="511"/><rect fill="none" height="6" style="stroke:#C82930;stroke-width:1.0;" width="6" x="30.5" y="522.3047"/><text fill="#000000" font-family="sans-serif" font-size="14" lengthAdjust="spacing" textLength="93" x="42.5" y="529.5332">chunk_size: int</text><rect fill="none" height="6" style="stroke:#C82930;stroke-width:1.0;" width="6" x="30.5" y="539.9141"/><text fill="#000000" font-family="sans-serif" font-size="14" lengthAdjust="spacing" textLength="101" x="42.5" y="547.1426">ignore_tail: bool</text><rect fill="none" height="6" style="stroke:#C82930;stroke-width:1.0;" width="6" x="30.5" y="557.5234"/><text fill="#000000" font-family="sans-serif" font-size="14" lengthAdjust="spacing" textLength="101" x="42.5" y="564.752">output_dir: Path</text><line style="stroke:#181818;stroke-width:0.5;" x1="23.5" x2="252.5" y1="571.8281" y2="571.8281"/><ellipse cx="33.5" cy="586.1328" fill="#84BE84" rx="3" ry="3" style="stroke:#038048;stroke-width:1.0;"/><text fill="#000000" font-family="sans-serif" font-size="14" lengthAdjust="spacing" textLength="205" x="42.5" y="590.3613">execute(filepath: str): list&lt;string&gt;</text></g><!--class HexDumpStrategy--><g id="elem_HexDumpStrategy"><rect codeLine="28" fill="#F1F1F1" height="100.8281" id="HexDumpStrategy" rx="2.5" ry="2.5" style="stroke:#181818;stroke-width:0.5;" width="231" x="288.5" y="487.5"/><ellipse cx="343.25" cy="503.5" fill="#ADD1B2" rx="11" ry="11" style="stroke:#181818;stroke-width:1.0;"/><path d="M345.9531,508.9375 Q345.0313,509.8594 342.7656,509.8594 Q341.5,509.8594 340.5781,508.9375 Q338.9219,507.2813 338.9219,503.75 Q338.9219,499.6406 340.7031,497.8438 Q341.6406,496.9219 342.8281,496.9219 Q345.0938,496.9219 345.8281,497.6406 Q347.2188,499.0469 347.1563,501.4375 L344.6875,501.4375 Q344.625,499.3125 343.8906,498.5781 Q343.5,498.1719 342.8281,498.1719 Q342.8281,498.1719 342.7656,498.6406 Q341.4375,499.9688 341.4375,503.625 Q341.4375,506.8125 342.5781,507.9375 Q343.1094,508.4688 343.1094,508.4688 Q343.3594,508.4688 343.8906,507.9375 Q344.5625,507.2813 344.625,504.8906 L347.2188,504.8906 Q347.0156,507.875 345.9531,508.9375 Z " fill="#000000"/><text fill="#000000" font-family="sans-serif" font-size="14" lengthAdjust="spacing" textLength="113" x="363.75" y="509.2285">HexDumpStrategy</text><line style="stroke:#181818;stroke-width:0.5;" x1="289.5" x2="518.5" y1="519.5" y2="519.5"/><rect fill="none" height="6" style="stroke:#C82930;stroke-width:1.0;" width="6" x="296.5" y="530.8047"/><text fill="#000000" font-family="sans-serif" font-size="14" lengthAdjust="spacing" textLength="58" x="308.5" y="538.0332">offset: int</text><rect fill="none" height="6" style="stroke:#C82930;stroke-width:1.0;" width="6" x="296.5" y="548.4141"/><text fill="#000000" font-family="sans-serif" font-size="14" lengthAdjust="spacing" textLength="47" x="308.5" y="555.6426">size: int</text><line style="stroke:#181818;stroke-width:0.5;" x1="289.5" x2="518.5" y1="562.7188" y2="562.7188"/><ellipse cx="299.5" cy="577.0234" fill="#84BE84" rx="3" ry="3" style="stroke:#038048;stroke-width:1.0;"/><text fill="#000000" font-family="sans-serif" font-size="14" lengthAdjust="spacing" textLength="205" x="308.5" y="581.252">execute(filepath: str): list&lt;string&gt;</text></g><!--class GenerateFileStrategy--><g id="elem_GenerateFileStrategy"><rect codeLine="2" fill="#F1F1F1" height="65.6094" id="GenerateFileStrategy" rx="2.5" ry="2.5" style="stroke:#181818;stroke-width:0.5;" width="231" x="991.5" y="334"/><ellipse cx="1034.85" cy="350" fill="#B4A7E5" rx="11" ry="11" style="stroke:#181818;stroke-width:1.0;"/><path d="M1035.8344,354.9063 L1036.5688,354.9063 L1036.5688,356.3594 L1032.5688,356.3594 L1032.5688,354.9063 L1033.3031,354.9063 L1033.3031,344.875 L1032.5688,344.875 L1032.5688,343.4219 L1036.5688,343.4219 L1036.5688,344.875 L1035.8344,344.875 L1035.8344,354.9063 Z " fill="#000000"/><text fill="#000000" font-family="sans-serif" font-size="14" font-style="italic" lengthAdjust="spacing" textLength="136" x="1055.15" y="355.7285">GenerateFileStrategy</text><line style="stroke:#181818;stroke-width:0.5;" x1="992.5" x2="1221.5" y1="366" y2="366"/><line style="stroke:#181818;stroke-width:0.5;" x1="992.5" x2="1221.5" y1="374" y2="374"/><ellipse cx="1002.5" cy="388.3047" fill="#84BE84" rx="3" ry="3" style="stroke:#038048;stroke-width:1.0;"/><text fill="#000000" font-family="sans-serif" font-size="14" lengthAdjust="spacing" textLength="205" x="1011.5" y="392.5332">execute(filepath: str): list&lt;string&gt;</text></g><!--class GenerateFile--><g id="elem_GenerateFile"><rect codeLine="6" fill="#F1F1F1" height="83.2188" id="GenerateFile" rx="2.5" ry="2.5" style="stroke:#181818;stroke-width:0.5;" width="231" x="991.5" y="173"/><ellipse cx="1061.25" cy="189" fill="#ADD1B2" rx="11" ry="11" style="stroke:#181818;stroke-width:1.0;"/><path d="M1063.9531,194.4375 Q1063.0313,195.3594 1060.7656,195.3594 Q1059.5,195.3594 1058.5781,194.4375 Q1056.9219,192.7813 1056.9219,189.25 Q1056.9219,185.1406 1058.7031,183.3438 Q1059.6406,182.4219 1060.8281,182.4219 Q1063.0938,182.4219 1063.8281,183.1406 Q1065.2188,184.5469 1065.1563,186.9375 L1062.6875,186.9375 Q1062.625,184.8125 1061.8906,184.0781 Q1061.5,183.6719 1060.8281,183.6719 Q1060.8281,183.6719 1060.7656,184.1406 Q1059.4375,185.4688 1059.4375,189.125 Q1059.4375,192.3125 1060.5781,193.4375 Q1061.1094,193.9688 1061.1094,193.9688 Q1061.3594,193.9688 1061.8906,193.4375 Q1062.5625,192.7813 1062.625,190.3906 L1065.2188,190.3906 Q1065.0156,193.375 1063.9531,194.4375 Z " fill="#000000"/><text fill="#000000" font-family="sans-serif" font-size="14" lengthAdjust="spacing" textLength="83" x="1081.75" y="194.7285">GenerateFile</text><line style="stroke:#181818;stroke-width:0.5;" x1="992.5" x2="1221.5" y1="205" y2="205"/><rect fill="none" height="6" style="stroke:#C82930;stroke-width:1.0;" width="6" x="999.5" y="216.3047"/><text fill="#000000" font-family="sans-serif" font-size="14" lengthAdjust="spacing" textLength="195" x="1011.5" y="223.5332">strategy: GenerateFileStrategy</text><line style="stroke:#181818;stroke-width:0.5;" x1="992.5" x2="1221.5" y1="230.6094" y2="230.6094"/><ellipse cx="1002.5" cy="244.9141" fill="#84BE84" rx="3" ry="3" style="stroke:#038048;stroke-width:1.0;"/><text fill="#000000" font-family="sans-serif" font-size="14" lengthAdjust="spacing" textLength="205" x="1011.5" y="249.1426">execute(filepath: str): list&lt;string&gt;</text></g><!--class IncrementalDataStrategy--><g id="elem_IncrementalDataStrategy"><rect codeLine="11" fill="#F1F1F1" height="136.0469" id="IncrementalDataStrategy" rx="2.5" ry="2.5" style="stroke:#181818;stroke-width:0.5;" width="231" x="842.5" y="470"/><ellipse cx="876.85" cy="486" fill="#ADD1B2" rx="11" ry="11" style="stroke:#181818;stroke-width:1.0;"/><path d="M879.5531,491.4375 Q878.6313,492.3594 876.3656,492.3594 Q875.1,492.3594 874.1781,491.4375 Q872.5219,489.7813 872.5219,486.25 Q872.5219,482.1406 874.3031,480.3438 Q875.2406,479.4219 876.4281,479.4219 Q878.6938,479.4219 879.4281,480.1406 Q880.8188,481.5469 880.7563,483.9375 L878.2875,483.9375 Q878.225,481.8125 877.4906,481.0781 Q877.1,480.6719 876.4281,480.6719 Q876.4281,480.6719 876.3656,481.1406 Q875.0375,482.4688 875.0375,486.125 Q875.0375,489.3125 876.1781,490.4375 Q876.7094,490.9688 876.7094,490.9688 Q876.9594,490.9688 877.4906,490.4375 Q878.1625,489.7813 878.225,487.3906 L880.8188,487.3906 Q880.6156,490.375 879.5531,491.4375 Z " fill="#000000"/><text fill="#000000" font-family="sans-serif" font-size="14" lengthAdjust="spacing" textLength="156" x="895.15" y="491.7285">IncrementalDataStrategy</text><line style="stroke:#181818;stroke-width:0.5;" x1="843.5" x2="1072.5" y1="502" y2="502"/><rect fill="none" height="6" style="stroke:#C82930;stroke-width:1.0;" width="6" x="850.5" y="513.3047"/><text fill="#000000" font-family="sans-serif" font-size="14" lengthAdjust="spacing" textLength="47" x="862.5" y="520.5332">size: int</text><rect fill="none" height="6" style="stroke:#C82930;stroke-width:1.0;" width="6" x="850.5" y="530.9141"/><text fill="#000000" font-family="sans-serif" font-size="14" lengthAdjust="spacing" textLength="78" x="862.5" y="538.1426">unit_size: int</text><rect fill="none" height="6" style="stroke:#C82930;stroke-width:1.0;" width="6" x="850.5" y="548.5234"/><text fill="#000000" font-family="sans-serif" font-size="14" lengthAdjust="spacing" textLength="93" x="862.5" y="555.752">start_value: int</text><rect fill="none" height="6" style="stroke:#C82930;stroke-width:1.0;" width="6" x="850.5" y="566.1328"/><text fill="#000000" font-family="sans-serif" font-size="14" lengthAdjust="spacing" textLength="162" x="862.5" y="573.3613">endian: Literal['little', 'big']</text><line style="stroke:#181818;stroke-width:0.5;" x1="843.5" x2="1072.5" y1="580.4375" y2="580.4375"/><ellipse cx="853.5" cy="594.7422" fill="#84BE84" rx="3" ry="3" style="stroke:#038048;stroke-width:1.0;"/><text fill="#000000" font-family="sans-serif" font-size="14" lengthAdjust="spacing" textLength="205" x="862.5" y="598.9707">execute(filepath: str): list&lt;string&gt;</text></g><!--class SecureRandomStrategy--><g id="elem_SecureRandomStrategy"><rect codeLine="19" fill="#F1F1F1" height="83.2188" id="SecureRandomStrategy" rx="2.5" ry="2.5" style="stroke:#181818;stroke-width:0.5;" width="231" x="1108.5" y="496.5"/><ellipse cx="1145.1" cy="512.5" fill="#ADD1B2" rx="11" ry="11" style="stroke:#181818;stroke-width:1.0;"/><path d="M1147.8031,517.9375 Q1146.8813,518.8594 1144.6156,518.8594 Q1143.35,518.8594 1142.4281,517.9375 Q1140.7719,516.2813 1140.7719,512.75 Q1140.7719,508.6406 1142.5531,506.8438 Q1143.4906,505.9219 1144.6781,505.9219 Q1146.9438,505.9219 1147.6781,506.6406 Q1149.0688,508.0469 1149.0063,510.4375 L1146.5375,510.4375 Q1146.475,508.3125 1145.7406,507.5781 Q1145.35,507.1719 1144.6781,507.1719 Q1144.6781,507.1719 1144.6156,507.6406 Q1143.2875,508.9688 1143.2875,512.625 Q1143.2875,515.8125 1144.4281,516.9375 Q1144.9594,517.4688 1144.9594,517.4688 Q1145.2094,517.4688 1145.7406,516.9375 Q1146.4125,516.2813 1146.475,513.8906 L1149.0688,513.8906 Q1148.8656,516.875 1147.8031,517.9375 Z " fill="#000000"/><text fill="#000000" font-family="sans-serif" font-size="14" lengthAdjust="spacing" textLength="151" x="1163.9" y="518.2285">SecureRandomStrategy</text><line style="stroke:#181818;stroke-width:0.5;" x1="1109.5" x2="1338.5" y1="528.5" y2="528.5"/><rect fill="none" height="6" style="stroke:#C82930;stroke-width:1.0;" width="6" x="1116.5" y="539.8047"/><text fill="#000000" font-family="sans-serif" font-size="14" lengthAdjust="spacing" textLength="47" x="1128.5" y="547.0332">size: int</text><line style="stroke:#181818;stroke-width:0.5;" x1="1109.5" x2="1338.5" y1="554.1094" y2="554.1094"/><ellipse cx="1119.5" cy="568.4141" fill="#84BE84" rx="3" ry="3" style="stroke:#038048;stroke-width:1.0;"/><text fill="#000000" font-family="sans-serif" font-size="14" lengthAdjust="spacing" textLength="205" x="1128.5" y="572.6426">execute(filepath: str): list&lt;string&gt;</text></g><!--class Main--><g id="elem_Main"><rect codeLine="5" fill="#F1F1F1" height="65.6094" id="Main" rx="2.5" ry="2.5" style="stroke:#181818;stroke-width:0.5;" width="66" x="709" y="7"/><ellipse cx="725.8" cy="23" fill="#ADD1B2" rx="11" ry="11" style="stroke:#181818;stroke-width:1.0;"/><path d="M728.5031,28.4375 Q727.5813,29.3594 725.3156,29.3594 Q724.05,29.3594 723.1281,28.4375 Q721.4719,26.7813 721.4719,23.25 Q721.4719,19.1406 723.2531,17.3438 Q724.1906,16.4219 725.3781,16.4219 Q727.6438,16.4219 728.3781,17.1406 Q729.7688,18.5469 729.7063,20.9375 L727.2375,20.9375 Q727.175,18.8125 726.4406,18.0781 Q726.05,17.6719 725.3781,17.6719 Q725.3781,17.6719 725.3156,18.1406 Q723.9875,19.4688 723.9875,23.125 Q723.9875,26.3125 725.1281,27.4375 Q725.6594,27.9688 725.6594,27.9688 Q725.9094,27.9688 726.4406,27.4375 Q727.1125,26.7813 727.175,24.3906 L729.7688,24.3906 Q729.5656,27.375 728.5031,28.4375 Z " fill="#000000"/><text fill="#000000" font-family="sans-serif" font-size="14" lengthAdjust="spacing" textLength="30" x="740.2" y="28.7285">Main</text><line style="stroke:#181818;stroke-width:0.5;" x1="710" x2="774" y1="39" y2="39"/><line style="stroke:#181818;stroke-width:0.5;" x1="710" x2="774" y1="47" y2="47"/><ellipse cx="720" cy="61.3047" fill="#84BE84" rx="3" ry="3" style="stroke:#038048;stroke-width:1.0;"/><text fill="#000000" font-family="sans-serif" font-size="14" lengthAdjust="spacing" textLength="40" x="729" y="65.5332">main()</text></g><!--reverse link FileOperationStrategy to ExtractStrategy--><g id="link_FileOperationStrategy_ExtractStrategy"><path codeLine="34" d="M600.4375,415.7972 C610.3375,433.0272 614.01,439.45 626.25,460.77 " fill="none" id="FileOperationStrategy-backto-ExtractStrategy" style="stroke:#181818;stroke-width:1.0;stroke-dasharray:7.0,7.0;"/><polygon fill="none" points="591.47,400.19,595.2352,418.7863,605.6399,412.808,591.47,400.19" style="stroke:#181818;stroke-width:1.0;"/></g><!--reverse link FileOperationStrategy to SplitStrategy--><g id="link_FileOperationStrategy_SplitStrategy"><path codeLine="35" d="M439.8785,402.05 C382.7485,418.07 330.77,435.1 271,461 C258.8,466.29 246.29,472.41 234.06,478.84 " fill="none" id="FileOperationStrategy-backto-SplitStrategy" style="stroke:#181818;stroke-width:1.0;stroke-dasharray:7.0,7.0;"/><polygon fill="none" points="457.21,397.19,438.2585,396.2728,441.4985,407.8271,457.21,397.19" style="stroke:#181818;stroke-width:1.0;"/></g><!--reverse link FileOperationStrategy to HexDumpStrategy--><g id="link_FileOperationStrategy_HexDumpStrategy"><path codeLine="36" d="M528.0821,412.9179 C503.4721,437.5279 481.83,459.17 453.69,487.31 " fill="none" id="FileOperationStrategy-backto-HexDumpStrategy" style="stroke:#181818;stroke-width:1.0;stroke-dasharray:7.0,7.0;"/><polygon fill="none" points="540.81,400.19,523.8394,408.6753,532.3247,417.1606,540.81,400.19" style="stroke:#181818;stroke-width:1.0;"/></g><!--link FileOperation to FileOperationStrategy--><g id="link_FileOperation_FileOperationStrategy"><path codeLine="38" d="M573,256.23 C573,280.6 573,305.15 573,327.82 " fill="none" id="FileOperation-to-FileOperationStrategy" style="stroke:#181818;stroke-width:1.0;"/><polygon fill="#181818" points="573,333.82,577,324.82,573,328.82,569,324.82,573,333.82" style="stroke:#181818;stroke-width:1.0;"/></g><!--reverse link GenerateFileStrategy to IncrementalDataStrategy--><g id="link_GenerateFileStrategy_IncrementalDataStrategy"><path codeLine="24" d="M1066.7147,413.6905 C1049.3247,433.4105 1038.31,445.91 1017.12,469.95 " fill="none" id="GenerateFileStrategy-backto-IncrementalDataStrategy" style="stroke:#181818;stroke-width:1.0;stroke-dasharray:7.0,7.0;"/><polygon fill="none" points="1078.62,400.19,1062.2145,409.722,1071.2148,417.6589,1078.62,400.19" style="stroke:#181818;stroke-width:1.0;"/></g><!--reverse link GenerateFileStrategy to SecureRandomStrategy--><g id="link_GenerateFileStrategy_SecureRandomStrategy"><path codeLine="25" d="M1139.5283,414.9877 C1158.4283,442.2777 1175.39,466.78 1195.8,496.26 " fill="none" id="GenerateFileStrategy-backto-SecureRandomStrategy" style="stroke:#181818;stroke-width:1.0;stroke-dasharray:7.0,7.0;"/><polygon fill="none" points="1129.28,400.19,1134.5957,418.4038,1144.4609,411.5716,1129.28,400.19" style="stroke:#181818;stroke-width:1.0;"/></g><!--link GenerateFile to GenerateFileStrategy--><g id="link_GenerateFile_GenerateFileStrategy"><path codeLine="27" d="M1107,256.23 C1107,280.6 1107,305.15 1107,327.82 " fill="none" id="GenerateFile-to-GenerateFileStrategy" style="stroke:#181818;stroke-width:1.0;"/><polygon fill="#181818" points="1107,333.82,1111,324.82,1107,328.82,1103,324.82,1107,333.82" style="stroke:#181818;stroke-width:1.0;"/></g><!--link Main to FileOperation--><g id="link_Main_FileOperation"><path codeLine="9" d="M710.61,73.04 C683.02,101.2 646.9288,138.034 617.0688,168.514 " fill="none" id="Main-to-FileOperation" style="stroke:#181818;stroke-width:1.0;stroke-dasharray:7.0,7.0;"/><polygon fill="#181818" points="612.87,172.8,622.0256,169.1702,616.369,169.2283,616.3109,163.5718,612.87,172.8" style="stroke:#181818;stroke-width:1.0;"/><text fill="#000000" font-family="sans-serif" font-size="13" lengthAdjust="spacing" textLength="28" x="678" y="117.4951">uses</text></g><!--link Main to GenerateFile--><g id="link_Main_GenerateFile"><path codeLine="10" d="M775.05,46.13 C819.73,53.95 901.05,71.41 964,103 C1000.45,121.29 1032.2274,145.5687 1059.1374,168.9087 " fill="none" id="Main-to-GenerateFile" style="stroke:#181818;stroke-width:1.0;stroke-dasharray:7.0,7.0;"/><polygon fill="#181818" points="1063.67,172.84,1059.4919,163.9213,1059.8928,169.5639,1054.2502,169.9648,1063.67,172.84" style="stroke:#181818;stroke-width:1.0;"/><text fill="#000000" font-family="sans-serif" font-size="13" lengthAdjust="spacing" textLength="28" x="994" y="117.4951">uses</text></g><!--link Main to SplitStrategy--><g id="link_Main_SplitStrategy"><path codeLine="11" d="M708.85,45.05 C628.66,55.46 427.09,85.41 377,129 C264.45,226.95 193.3739,385.8585 160.3739,473.0485 " fill="none" id="Main-to-SplitStrategy" style="stroke:#181818;stroke-width:1.0;stroke-dasharray:7.0,7.0;"/><polygon fill="#181818" points="158.25,478.66,165.1768,471.6586,160.0199,473.9837,157.6948,468.8268,158.25,478.66" style="stroke:#181818;stroke-width:1.0;"/><text fill="#000000" font-family="sans-serif" font-size="13" lengthAdjust="spacing" textLength="43" x="251" y="300.4951">creates</text></g><!--link Main to ExtractStrategy--><g id="link_Main_ExtractStrategy"><path codeLine="12" d="M740.46,73.42 C737.07,136.65 727.52,280.72 706,400 C702.42,419.85 698.9536,435.224 693.8336,454.864 " fill="none" id="Main-to-ExtractStrategy" style="stroke:#181818;stroke-width:1.0;stroke-dasharray:7.0,7.0;"/><polygon fill="#181818" points="692.32,460.67,698.461,452.9701,693.5813,455.8317,690.7197,450.952,692.32,460.67" style="stroke:#181818;stroke-width:1.0;"/><text fill="#000000" font-family="sans-serif" font-size="13" lengthAdjust="spacing" textLength="43" x="723" y="300.4951">creates</text></g><!--link Main to HexDumpStrategy--><g id="link_Main_HexDumpStrategy"><path codeLine="13" d="M708.88,45.9 C637.85,57.13 474.49,87.01 440,129 C355.26,232.17 374.274,397.5764 391.064,481.5764 " fill="none" id="Main-to-HexDumpStrategy" style="stroke:#181818;stroke-width:1.0;stroke-dasharray:7.0,7.0;"/><polygon fill="#181818" points="392.24,487.46,394.3984,477.8506,391.26,482.557,386.5536,479.4186,392.24,487.46" style="stroke:#181818;stroke-width:1.0;"/><text fill="#000000" font-family="sans-serif" font-size="13" lengthAdjust="spacing" textLength="43" x="381" y="300.4951">creates</text></g><!--link Main to IncrementalDataStrategy--><g id="link_Main_IncrementalDataStrategy"><path codeLine="14" d="M767.83,73.29 C779.61,89.29 792.92,109.36 802,129 C835.85,202.21 822.28,228.26 850,304 C870.99,361.36 897.7756,418.689 920.6256,464.579 " fill="none" id="Main-to-IncrementalDataStrategy" style="stroke:#181818;stroke-width:1.0;stroke-dasharray:7.0,7.0;"/><polygon fill="#181818" points="923.3,469.95,922.8691,460.1106,921.0713,465.4742,915.7078,463.6764,923.3,469.95" style="stroke:#181818;stroke-width:1.0;"/><text fill="#000000" font-family="sans-serif" font-size="13" lengthAdjust="spacing" textLength="43" x="851" y="300.4951">creates</text></g><!--link Main to SecureRandomStrategy--><g id="link_Main_SecureRandomStrategy"><path codeLine="15" d="M775.14,63.07 C797.16,79.15 825.34,102.66 844,129 C921.22,238.01 881.13,303.98 974,400 C1014.77,442.15 1039.53,432.89 1091,461 C1111.66,472.28 1128.7223,481.8701 1149.0123,493.4801 " fill="none" id="Main-to-SecureRandomStrategy" style="stroke:#181818;stroke-width:1.0;stroke-dasharray:7.0,7.0;"/><polygon fill="#181818" points="1154.22,496.46,1148.395,488.5184,1149.8802,493.9768,1144.4218,495.462,1154.22,496.46" style="stroke:#181818;stroke-width:1.0;"/><text fill="#000000" font-family="sans-serif" font-size="13" lengthAdjust="spacing" textLength="43" x="913" y="300.4951">creates</text></g><!--SRC=[KrTuidlQuyPrZvkdFcvQ-BXfoUFcrK3kqzcR7pTDUh5gxUF6_I_sxNdSrF1qmPQd4phUx-a8o4dCAmdrzG6gKipCIyufJKbzjdB-Y-Qzx_TqSi545D8oSrBZymjIYn9BClFpz0fAStCGakcfUI29r7YGAeWSLt9EOd6nWczYPfv2DPS246Zd0jaQcborN5nWKJqzEmKte7f_cA4ALWgbnQd525btgB4WLHYImGKvcIN19I3vz4gWR79HAf29fC2r0YYPZ5U9Hsg5Isbk0Jubddb0eTpKl9B479V4aaHyIeDJaqkBKeCIyrBoSx6e0m00]--></g></svg>